{
  "accessors": [
    {
      "bufferView": 2,
      "componentType": 5126,
      "count": 1826,
      "max": [
        12.62167739868164,
        2.500417709350586,
        2.4189319610595703
      ],
      "min": [
        -12.62167739868164,
        -2.500417709350586,
        -2.4189319610595703
      ],
      "type": "VEC3"
    },
    {
      "bufferView": 2,
      "byteOffset": 21912,
      "componentType": 5126,
      "count": 1826,
      "max": [
        0.9988746643066406,
        0.9999262690544128,
        0.9999821782112122
      ],
      "min": [
        -0.9979027509689331,
        -0.9999849200248718,
        -0.9999733567237854
      ],
      "type": "VEC3"
    },
    {
      "bufferView": 3,
      "componentType": 5126,
      "count": 1826,
      "max": [
        0.9999816417694092,
        0.9979118704795837,
        0.9870709776878357,
        1.0
      ],
      "min": [
        -0.9999982118606567,
        -0.9987411499023438,
        -0.9999975562095642,
        1.0
      ],
      "type": "VEC4"
    },
    {
      "bufferView": 1,
      "componentType": 5126,
      "count": 1826,
      "max": [
        0.9706422686576843,
        0.9653748869895935
      ],
      "min": [
        0.029296875,
        0.029296875
      ],
      "type": "VEC2"
    },
    {
      "bufferView": 0,
      "componentType": 5125,
      "count": 9900,
      "type": "SCALAR"
    }
  ],
  "asset": {
    "extras": {
      "author": "chapmanecodesign (https://sketchfab.com/chapmanecodesign)",
      "license": "CC-BY-4.0 (http://creativecommons.org/licenses/by/4.0/)",
      "source": "https://sketchfab.com/3d-models/pickling-cucumber-2f0743a1d27345269d1444a8becfce59",
      "title": "Pickling Cucumber"
    },
    "generator": "Sketchfab-12.65.0",
    "version": "2.0"
  },
  "bufferViews": [
    {
      "buffer": 0,
      "byteLength": 39600,
      "name": "floatBufferViews",
      "target": 34963
    },
    {
      "buffer": 0,
      "byteLength": 14608,
      "byteOffset": 39600,
      "byteStride": 8,
      "name": "floatBufferViews",
      "target": 34962
    },
    {
      "buffer": 0,
      "byteLength": 43824,
      "byteOffset": 54208,
      "byteStride": 12,
      "name": "floatBufferViews",
      "target": 34962
    },
    {
      "buffer": 0,
      "byteLength": 29216,
      "byteOffset": 98032,
      "byteStride": 16,
      "name": "floatBufferViews",
      "target": 34962
    }
  ],
  "buffers": [
    {
      "byteLength": 127248,
      "uri": "scene.bin"
    }
  ],
  "images": [
    {
      "uri": "textures/Scene_-_Root_baseColor.jpeg"
    },
    {
      "uri": "textures/Scene_-_Root_metallicRoughness.png"
    },
    {
      "uri": "textures/Scene_-_Root_normal.png"
    }
  ],
  "materials": [
    {
      "doubleSided": true,
      "name": "Scene_-_Root",
      "normalTexture": {
        "index": 2
      },
      "occlusionTexture": {
        "index": 1
      },
      "pbrMetallicRoughness": {
        "baseColorTexture": {
          "index": 0
        },
        "metallicFactor": 0.0,
        "metallicRoughnessTexture": {
          "index": 1
        }
      }
    }
  ],
  "meshes": [
    {
      "name": "Aset_edible_vegetables_S_tl2leafjw_LOD0__0",
      "primitives": [
        {
          "attributes": {
            "NORMAL": 1,
            "POSITION": 0,
            "TANGENT": 2,
            "TEXCOORD_0": 3
          },
          "indices": 4,
          "material": 0,
          "mode": 4
        }
      ]
    }
  ],
  "nodes": [
    {
      "children": [
        1
      ],
      "matrix": [
        0.01120121031999588,
        0.0,
        0.0,
        0.0,
        0.0,
        2.4871683201856687e-18,
        -0.01120121031999588,
        0.0,
        0.0,
        0.01120121031999588,
        2.4871683201856687e-18,
        0.0,
        0.0,
        0.0,
        0.0,
        1.0
      ],
      "name": "Sketchfab_model"
    },
    {
      "children": [
        2
      ],
      "matrix": [
        1.0,
        0.0,
        0.0,
        0.0,
        0.0,
        0.0,
        1.0,
        0.0,
        0.0,
        -1.0,
        0.0,
        0.0,
        0.0,
        0.0,
        0.0,
        1.0
      ],
      "name": "tl2leafjw_LOD0.fbx"
    },
    {
      "children": [
        3
      ],
      "name": "RootNode"
    },
    {
      "children": [
        4
      ],
      "name": "Aset_edible_vegetables_S_tl2leafjw_LOD0"
    },
    {
      "mesh": 0,
      "name": "Aset_edible_vegetables_S_tl2leafjw_LOD0__0"
    }
  ],
  "samplers": [
    {
      "magFilter": 9729,
      "minFilter": 9987,
      "wrapS": 10497,
      "wrapT": 10497
    }
  ],
  "scene": 0,
  "scenes": [
    {
      "name": "Sketchfab_Scene",
      "nodes": [
        0
      ]
    }
  ],
  "textures": [
    {
      "sampler": 0,
      "source": 0
    },
    {
      "sampler": 0,
      "source": 1
    },
    {
      "sampler": 0,
      "source": 2
    }
  ]
}
